<svg width="56" height="56" viewBox="0 0 56 56" fill="none" xmlns="http://www.w3.org/2000/svg">
<path d="M28 3L29.1952 2.0937L26.8048 2.0937L28 3ZM34.697 11.8321L33.5017 12.7384L34.9013 13.3181L34.697 11.8321ZM45.6777 10.3223L47.1637 10.5266L45.4734 8.83631L45.6777 10.3223ZM44.1679 21.303L42.6819 21.0987L43.2616 22.4983L44.1679 21.303ZM53 28L53.9063 29.1952V26.8048L53 28ZM44.1679 34.697L43.2616 33.5017L42.6819 34.9013L44.1679 34.697ZM45.6777 45.6777L45.4734 47.1637L47.1637 45.4734L45.6777 45.6777ZM34.697 44.1679L34.9013 42.6819L33.5017 43.2616L34.697 44.1679ZM28 53L26.8048 53.9063H29.1952L28 53ZM21.303 44.1679L22.4983 43.2616L21.0987 42.6819L21.303 44.1679ZM10.3223 45.6777L8.83631 45.4734L10.5266 47.1637L10.3223 45.6777ZM11.8321 34.697L13.3181 34.9013L12.7384 33.5017L11.8321 34.697ZM3 28L2.0937 26.8048L2.0937 29.1952L3 28ZM11.8321 21.303L12.7384 22.4983L13.3181 21.0987L11.8321 21.303ZM10.3223 10.3223L10.5266 8.83631L8.83631 10.5266L10.3223 10.3223ZM21.303 11.8321L21.0987 13.3181L22.4983 12.7384L21.303 11.8321ZM26.8048 3.9063L33.5017 12.7384L35.8922 10.9258L29.1952 2.0937L26.8048 3.9063ZM34.9013 13.3181L45.882 11.8083L45.4734 8.83631L34.4926 10.3461L34.9013 13.3181ZM44.1917 10.118L42.6819 21.0987L45.6539 21.5074L47.1637 10.5266L44.1917 10.118ZM43.2616 22.4983L52.0937 29.1952L53.9063 26.8048L45.0742 20.1078L43.2616 22.4983ZM52.0937 26.8048L43.2616 33.5017L45.0742 35.8922L53.9063 29.1952L52.0937 26.8048ZM42.6819 34.9013L44.1917 45.882L47.1637 45.4734L45.6539 34.4926L42.6819 34.9013ZM45.882 44.1917L34.9013 42.6819L34.4926 45.6539L45.4734 47.1637L45.882 44.1917ZM33.5017 43.2616L26.8048 52.0937L29.1952 53.9063L35.8922 45.0742L33.5017 43.2616ZM29.1952 52.0937L22.4983 43.2616L20.1078 45.0742L26.8048 53.9063L29.1952 52.0937ZM21.0987 42.6819L10.118 44.1917L10.5266 47.1637L21.5074 45.6539L21.0987 42.6819ZM11.8083 45.882L13.3181 34.9013L10.3461 34.4926L8.83631 45.4734L11.8083 45.882ZM12.7384 33.5017L3.9063 26.8048L2.0937 29.1952L10.9258 35.8922L12.7384 33.5017ZM3.9063 29.1952L12.7384 22.4983L10.9258 20.1078L2.0937 26.8048L3.9063 29.1952ZM13.3181 21.0987L11.8083 10.118L8.83631 10.5266L10.3461 21.5074L13.3181 21.0987ZM10.118 11.8083L21.0987 13.3181L21.5074 10.3461L10.5266 8.83631L10.118 11.8083ZM22.4983 12.7384L29.1952 3.9063L26.8048 2.0937L20.1078 10.9258L22.4983 12.7384Z" fill="#40D0D5"/>
<circle cx="28" cy="28" r="9.5" stroke="#40D0D5" stroke-width="3"/>
</svg>
