<svg width="56" height="56" viewBox="0 0 56 56" fill="none" xmlns="http://www.w3.org/2000/svg">
<path d="M5 18V16.5H3.5V18H5ZM28 18V19.5H28.4761L28.865 19.2255L28 18ZM28 38L28.865 36.7745L28.4761 36.5H28V38ZM5 38H3.5V39.5H5V38ZM45 6H46.5L44.135 4.77455L45 6ZM45 50L44.135 51.2255L46.5 50H45ZM5 19.5H28V16.5H5V19.5ZM28 36.5H5V39.5H28V36.5ZM6.5 38V18H3.5V38H6.5ZM28.865 19.2255L45.865 7.22545L44.135 4.77455L27.135 16.7745L28.865 19.2255ZM43.5 6V50H46.5V6H43.5ZM45.865 48.7745L28.865 36.7745L27.135 39.2255L44.135 51.2255L45.865 48.7745Z" fill="#40D0D5"/>
<path d="M28 18V38" stroke="#40D0D5" stroke-width="3"/>
<rect x="10" y="38" width="7" height="12" stroke="#40D0D5" stroke-width="3"/>
<path d="M44 37C48.9706 37 53 32.9706 53 28C53 23.0294 48.9706 19 44 19" stroke="#40D0D5" stroke-width="3"/>
</svg>
