<svg width="56" height="56" viewBox="0 0 56 56" fill="none" xmlns="http://www.w3.org/2000/svg">
<path d="M7 16L6.46601 14.5983L5.5 16H7ZM49 16H50.5L49.534 14.5983L49 16ZM49 40L49.534 41.4017L50.5 40H49ZM7 40H5.5L6.46601 41.4017L7 40ZM28 8L28.534 6.59827L28 6.39484L27.466 6.59827L28 8ZM28 48L27.466 49.4017L28 49.6052L28.534 49.4017L28 48ZM47.5 16V40H50.5V16H47.5ZM8.5 40V16H5.5V40H8.5ZM7.53399 17.4017L28.534 9.40173L27.466 6.59827L6.46601 14.5983L7.53399 17.4017ZM27.466 9.40173L48.466 17.4017L49.534 14.5983L28.534 6.59827L27.466 9.40173ZM48.466 38.5983L27.466 46.5983L28.534 49.4017L49.534 41.4017L48.466 38.5983ZM28.534 46.5983L7.53399 38.5983L6.46601 41.4017L27.466 49.4017L28.534 46.5983Z" fill="#40D0D5"/>
<path d="M49 18L28 26L7 18" stroke="#40D0D5" stroke-width="3"/>
<path d="M28 26V41" stroke="#40D0D5" stroke-width="3"/>
</svg>
