<svg width="27" height="9" viewBox="0 0 27 9" fill="none" xmlns="http://www.w3.org/2000/svg">
<path fill-rule="evenodd" clip-rule="evenodd" d="M20.7789 0.182893C19.0537 0.477519 17.3574 1.03547 15.7209 1.84657C15.2089 2.15037 14.6759 2.32398 14.1638 2.62778C13.1188 3.16305 12.1365 3.64045 11.1019 4.19019C10.757 4.36379 8.29075 5.37647 7.86229 5.50667C5.77223 6.21554 2.63714 7.05461 0.64113 5.796C-0.309848 5.145 -0.403901 7.17035 1.75931 7.89368C3.02436 8.20038 4.3225 8.12139 5.56322 7.66222C6.60825 7.35841 7.86229 6.82314 8.85507 6.40361C9.84785 5.98407 11.0183 5.50667 12.0947 5.08713C12.3559 4.95693 12.5649 4.8412 12.868 4.72546L14.4669 4.05999C14.7699 3.94425 14.9894 3.77065 15.2507 3.64045L16.9018 3.10518C17.2049 2.98945 17.4243 2.87371 17.6856 2.74351C19.8736 2.09735 22.1052 1.77726 24.3424 1.7887C24.8963 1.7887 25.7219 1.97677 26.2862 2.09251C27.3312 2.26611 27.1013 1.49937 26.4116 1.0075C24.6183 0.0562829 22.6762 -0.228022 20.7789 0.182893Z" fill="#40D0D5"/>
</svg>
