<svg xmlns="http://www.w3.org/2000/svg" width="22" height="22">
  <path d="M11.01 0A11 11 0 0 0 1.5 16.47L0 22l5.76-1.36A11 11 0 0 0 18.79 3.22 10.92 10.92 0 0 0 11 0Zm0 2.2A8.75 8.75 0 0 1 19.8 11a8.8 8.8 0 0 1-12.99 7.7l-.74-.4-.82.2-2.16.5.52-1.95.24-.89-.45-.79A8.78 8.78 0 0 1 11 2.2ZM7.12 5.91a1 1 0 0 0-.73.35c-.25.27-.96.93-.96 2.28 0 1.36.98 2.66 1.12 2.84.14.19 1.9 3.05 4.7 4.15 2.31.91 2.78.73 3.29.68.5-.04 1.62-.66 1.85-1.3.23-.64.23-1.2.16-1.3-.07-.12-.25-.19-.53-.33-.27-.13-1.62-.8-1.87-.89-.25-.09-.44-.14-.62.14-.18.27-.7.9-.87 1.07-.16.19-.32.21-.6.07-.27-.13-1.15-.42-2.2-1.36a8.27 8.27 0 0 1-1.53-1.9c-.16-.27-.01-.42.12-.56.13-.12.28-.32.41-.48.14-.16.19-.28.28-.46.09-.18.04-.34-.03-.48-.06-.14-.6-1.5-.84-2.04-.2-.45-.42-.46-.62-.47h-.53Z"/>
</svg>
