<svg width="152" height="152" viewBox="0 0 152 152" fill="none" xmlns="http://www.w3.org/2000/svg">
<path d="M138.201 77.817L145.808 78.4051C146.366 78.4482 146.495 78.5986 146.452 79.1569L146.174 82.7582C146.13 83.3165 145.98 83.4453 145.422 83.4021L137.814 82.8141L137.672 84.6566L145.977 85.2986C147.094 85.3849 147.488 84.8256 147.553 83.9881L148.004 78.1535C148.069 77.316 147.765 76.7028 146.648 76.6165L138.343 75.9745L138.201 77.817Z" fill="#D8D8D8"/>
<path d="M146.001 93.0354C146.883 89.5182 146.205 87.9049 142.361 86.9414C138.518 85.9779 137.159 87.0805 136.278 90.5977C135.389 94.142 136.07 95.7417 139.914 96.7052C143.757 97.6687 145.112 96.5797 146.001 93.0354ZM141.898 88.7882C144.614 89.4692 145.16 90.3422 144.575 92.6779C143.989 95.0136 143.093 95.5393 140.377 94.8584C137.661 94.1774 137.118 93.2909 137.704 90.9551C138.289 88.6194 139.183 88.1073 141.898 88.7882Z" fill="#D8D8D8"/>
<path d="M135.83 98.0828L135.994 97.7271C136.347 96.9648 136.277 96.2842 135.261 95.8136L133.546 95.0193L132.769 96.6962L133.849 97.1963C134.319 97.414 134.437 97.5921 134.243 98.0113L130.66 105.748C130.466 106.167 130.248 106.205 129.778 105.987L128.698 105.487L127.921 107.164L129.636 107.958C130.653 108.429 131.217 108.043 131.57 107.28L131.741 106.912L139.844 107.039C140.69 107.045 141.09 106.813 141.443 106.051C141.796 105.289 141.726 104.84 141.162 104.193L135.83 98.0828ZM139.65 104.959C139.734 105.044 139.877 105.202 139.829 105.304C139.782 105.406 139.575 105.387 139.456 105.378L132.535 105.197L135.036 99.7978L139.65 104.959Z" fill="#D8D8D8"/>
<path d="M127.566 118.874L127.61 118.908C127.078 119.842 127.587 120.647 128.415 121.292C129.807 122.376 130.966 122.391 131.921 121.165L135.336 116.78L134.176 115.877L131.303 119.566C130.701 120.339 130.181 120.254 129.519 119.738C128.746 119.136 128.613 118.713 129.207 117.951L132.003 114.362L130.843 113.458L128.03 117.07C127.428 117.843 126.838 117.917 126.065 117.314C125.292 116.712 125.263 116.157 125.943 115.285L128.799 111.618L127.639 110.714L124.189 115.143C122.95 116.734 123.614 117.819 124.796 118.739C125.801 119.522 126.783 119.719 127.566 118.874Z" fill="#D8D8D8"/>
<path d="M122.667 117.305L121.252 118.64L122.229 121.125L118.798 124.363L116.364 123.252L114.949 124.587L123.68 128.456C124.502 128.817 124.999 128.732 125.61 128.156C126.252 127.551 126.335 127.087 126.022 126.246L122.667 117.305ZM124.353 126.416C124.418 126.566 124.52 126.817 124.428 126.903C124.337 126.99 124.093 126.874 123.946 126.8L120.047 124.993L122.786 122.409L124.353 126.416Z" fill="#D8D8D8"/>
<path d="M104.307 131.538C103.832 131.835 103.639 131.791 103.342 131.316L102.711 130.308L101.144 131.288L102.147 132.89C102.741 133.839 103.425 133.824 104.137 133.378L104.493 133.156L108.913 140.216L110.48 139.236L106.06 132.175L109.264 130.169L113.684 137.23L115.25 136.249L110.83 129.189L113.37 127.599C113.844 127.302 114.037 127.346 114.334 127.821L118.383 134.288L119.949 133.308L115.529 126.247C114.935 125.298 114.251 125.313 113.539 125.759L104.307 131.538Z" fill="#D8D8D8"/>
<path d="M93.2211 135.871L96.0262 143.521C96.1949 143.981 96.6598 145.167 98.0399 144.661C98.6708 144.43 99.0095 144.052 99.2018 143.072L100.682 135.64C100.721 135.462 100.72 135.298 100.825 135.259C100.97 135.206 101.06 135.412 101.137 135.622L103.601 142.503L105.349 141.862L102.515 134.133C102.322 133.607 101.91 132.565 100.583 133.052C99.6495 133.394 99.547 133.969 99.4418 134.455L97.8975 141.955C97.8348 142.231 97.8151 142.462 97.7099 142.501C97.5917 142.544 97.5207 142.391 97.4677 142.246L94.9693 135.23L93.2211 135.871Z" fill="#D8D8D8"/>
<path d="M86.7399 137.245L88.3006 145.427L84.5325 146.146L84.8079 147.59L94.1456 145.809L93.8701 144.365L90.1158 145.081L88.5551 136.899L86.7399 137.245Z" fill="#D8D8D8"/>
<path d="M78.0348 148.091C81.6594 147.994 83.0306 146.906 82.9235 142.946C82.8165 138.985 81.3886 137.973 77.764 138.071C74.1113 138.17 72.7542 139.257 72.8612 143.217C72.9682 147.178 74.3821 148.19 78.0348 148.091ZM81.0202 142.997C81.0959 145.796 80.4022 146.557 77.9951 146.622C75.5879 146.687 74.8402 145.965 74.7645 143.166C74.6889 140.367 75.3966 139.606 77.8037 139.541C80.2108 139.476 80.9446 140.198 81.0202 142.997Z" fill="#D8D8D8"/>
<path d="M61.9814 136.865L60.7623 144.922C60.689 145.406 60.5261 146.67 61.9795 146.89C62.644 146.99 63.1225 146.822 63.7625 146.055L68.6338 140.251C68.7537 140.113 68.8321 139.969 68.9429 139.986C69.0951 140.009 69.0755 140.233 69.042 140.454L67.8931 147.671L69.7342 147.95L70.9659 139.811C71.0497 139.257 71.1896 138.145 69.7915 137.934C68.8087 137.785 68.4426 138.24 68.1167 138.615L63.1561 144.448C62.9682 144.661 62.8399 144.854 62.7291 144.837C62.6045 144.818 62.6158 144.65 62.6389 144.498L63.8225 137.144L61.9814 136.865ZM64.9144 148.736C65.565 148.834 65.9841 149.153 66.0836 149.805L67.5509 150.027C67.4239 148.62 66.5983 147.9 65.0757 147.67C63.553 147.439 62.5514 147.883 62.0001 149.187L63.4674 149.409C63.7693 148.817 64.2776 148.639 64.9144 148.736Z" fill="#D8D8D8"/>
<path d="M49.3829 132.591L48.8562 133.963L53.7706 135.849C54.2935 136.05 54.374 136.231 54.1733 136.754L51.4394 143.877L53.1646 144.539L56.1495 136.762C56.5508 135.717 56.1272 135.179 55.343 134.878L49.3829 132.591Z" fill="#D8D8D8"/>
<path d="M40.0125 138.753C43.1613 140.551 44.8977 140.333 46.8624 136.892C48.8271 133.452 48.132 131.846 44.9832 130.048C41.8101 128.236 40.0859 128.46 38.1212 131.901C36.1565 135.341 36.8394 136.941 40.0125 138.753ZM45.209 135.948C43.8205 138.38 42.8325 138.67 40.7414 137.476C38.6504 136.282 38.3861 135.277 39.7746 132.845C41.1631 130.414 42.1632 130.13 44.2543 131.324C46.3453 132.518 46.5974 133.517 45.209 135.948Z" fill="#D8D8D8"/>
<path d="M35.7428 123.807L30.5053 130.285L27.5224 127.873L26.5981 129.016L33.99 134.993L34.9143 133.85L31.9423 131.447L37.1798 124.969L35.7428 123.807Z" fill="#D8D8D8"/>
<path d="M21.8191 124.126C24.2298 126.835 25.9449 127.182 28.9045 124.548C31.8641 121.914 31.7177 120.17 29.3071 117.462C26.8779 114.732 25.1721 114.395 22.2124 117.029C19.2528 119.663 19.3899 121.396 21.8191 124.126ZM27.6387 123.126C25.5471 124.988 24.5181 124.947 22.9172 123.149C21.3163 121.35 21.3866 120.313 23.4782 118.451C25.5699 116.59 26.6081 116.64 28.209 118.439C29.8099 120.238 29.7303 121.265 27.6387 123.126Z" fill="#D8D8D8"/>
<path d="M25.2668 112.937L21.96 107.74C21.1483 106.464 19.9231 106.547 18.7065 107.321C17.4072 108.148 17.23 108.99 17.6186 110.436L18.5858 114.068C18.7941 114.865 18.4773 115.15 18.1111 115.383C17.5205 115.758 17.0889 115.602 16.8409 115.212L14.0752 110.865L12.835 111.654L15.8637 116.414C16.6979 117.725 17.8812 117.786 19.0624 117.034C20.1963 116.313 20.6903 115.55 20.3414 114.246L19.2947 110.332C19.0607 109.468 19.3979 109.138 19.7168 108.935C20.0003 108.754 20.6371 108.399 21.1105 109.143L24.0265 113.726L25.2668 112.937Z" fill="#D8D8D8"/>
<path d="M11.313 95.9159C12.6778 95.5461 13.5359 94.1096 13.1551 92.7043C12.7816 91.326 11.3119 90.5059 9.94713 90.8757C8.55533 91.2529 7.74137 92.6919 8.11488 94.0702C8.49571 95.4755 9.9347 96.2895 11.313 95.9159Z" fill="#D8D8D8"/>
<path d="M13.1105 75.5871L5.48867 75.2339C4.92927 75.208 4.79591 75.0616 4.82183 74.5022L4.98903 70.8941C5.01496 70.3347 5.16129 70.2013 5.72069 70.2272L13.3425 70.5805L13.4281 68.7344L5.10698 68.3488C3.98819 68.297 3.61134 68.8681 3.57246 69.7072L3.30156 75.553C3.26267 76.3921 3.58508 76.9956 4.70388 77.0475L13.0249 77.4331L13.1105 75.5871Z" fill="#D8D8D8"/>
<path d="M4.8346 60.6283C4.06031 64.1706 4.78714 65.7626 8.65775 66.6086C12.5284 67.4547 13.8531 66.3112 14.6274 62.7688C15.4077 59.1991 14.6779 57.6208 10.8072 56.7748C6.93662 55.9287 5.61488 57.0586 4.8346 60.6283ZM9.06433 64.7485C6.32891 64.1506 5.75649 63.2946 6.2707 60.9422C6.7849 58.5897 7.66524 58.037 10.4007 58.6349C13.1361 59.2328 13.7055 60.1024 13.1913 62.4549C12.6771 64.8074 11.7997 65.3464 9.06433 64.7485Z" fill="#D8D8D8"/>
<path d="M14.7669 55.4554L14.6142 55.8164C14.287 56.5901 14.3803 57.268 15.4118 57.7043L17.1525 58.4405L17.8724 56.7385L16.7764 56.2749C16.2994 56.0731 16.1754 55.8991 16.3553 55.4736L19.6767 47.6211C19.8566 47.1956 20.0733 47.1505 20.5504 47.3522L21.6464 47.8158L22.3663 46.1138L20.6256 45.3775C19.5941 44.9412 19.0427 45.3464 18.7154 46.1201L18.5573 46.494L10.4547 46.6391C9.60918 46.6615 9.21694 46.906 8.88972 47.6797C8.5625 48.4533 8.64734 48.8996 9.23306 49.5274L14.7669 55.4554ZM10.7182 48.7115C10.6314 48.6292 10.4836 48.4754 10.5273 48.3723C10.5709 48.2691 10.7787 48.281 10.8982 48.286L17.821 48.2347L15.5032 53.7147L10.7182 48.7115Z" fill="#D8D8D8"/>
<path d="M22.3133 34.3903L22.268 34.3573C22.7694 33.4063 22.2342 32.6188 21.3851 32.0012C19.9586 30.9635 18.7996 30.986 17.8855 32.2427L14.616 36.7373L15.8047 37.6021L18.5554 33.8207C19.1319 33.0282 19.6537 33.0962 20.333 33.5903C21.1255 34.1668 21.2717 34.5847 20.7034 35.3659L18.0269 39.0454L19.2156 39.9101L21.9086 36.208C22.4851 35.4154 23.0718 35.3229 23.8643 35.8994C24.6568 36.4758 24.7041 37.0296 24.0535 37.924L21.3193 41.6827L22.5081 42.5475L25.8105 38.0075C26.9964 36.3773 26.2977 35.3149 25.0863 34.4337C24.056 33.6843 23.0679 33.5195 22.3133 34.3903Z" fill="#D8D8D8"/>
<path d="M27.1792 35.8523L28.5503 34.4713L27.492 32.0201L30.816 28.6718L33.2847 29.7023L34.6557 28.3213L25.8024 24.7401C24.9696 24.4066 24.475 24.5073 23.8832 25.1035C23.2618 25.7294 23.1942 26.1949 23.5338 27.0253L27.1792 35.8523ZM25.1961 26.8014C25.1263 26.6532 25.0165 26.4061 25.1053 26.3167C25.1941 26.2273 25.4419 26.3353 25.5907 26.404L29.5467 28.0825L26.8934 30.7551L25.1961 26.8014Z" fill="#D8D8D8"/>
<path d="M45.294 20.8406C45.7598 20.5296 45.954 20.5683 46.2649 21.0341L46.9256 22.0238L48.4626 20.9977L47.4132 19.4258C46.7913 18.4943 46.1079 18.5297 45.4093 18.9961L45.06 19.2293L40.4348 12.3014L38.8979 13.3275L43.5231 20.2554L40.3793 22.3542L35.7541 15.4263L34.2171 16.4524L38.8423 23.3803L36.3506 25.0439C35.8849 25.3548 35.6907 25.3161 35.3797 24.8503L31.1432 18.5046L29.6063 19.5307L34.2315 26.4586C34.8533 27.3901 35.5367 27.3547 36.2353 26.8883L45.294 20.8406Z" fill="#D8D8D8"/>
<path d="M55.8712 16.2836L52.8097 8.73264C52.6256 8.27854 52.121 7.10841 50.7587 7.66075C50.1359 7.91325 49.8102 8.30214 49.651 9.28819L48.4226 16.7657C48.3896 16.9452 48.3956 17.109 48.2918 17.1511C48.1491 17.2089 48.0519 17.0066 47.9678 16.799L45.2738 10.0054L43.5482 10.7051L46.6413 18.3339C46.8517 18.8528 47.2985 19.8803 48.6089 19.349C49.53 18.9755 49.6131 18.3979 49.7018 17.9088L50.9923 10.3608C51.0456 10.0824 51.0575 9.85095 51.1613 9.80887C51.2781 9.76152 51.3542 9.91195 51.412 10.0547L54.1457 16.9832L55.8712 16.2836Z" fill="#D8D8D8"/>
<path d="M62.6764 14.5648L60.8666 6.43375L64.6109 5.60034L64.2916 4.16545L55.0126 6.23074L55.332 7.66563L59.0627 6.83525L60.8725 14.9663L62.6764 14.5648Z" fill="#D8D8D8"/>
<path d="M70.9623 3.4538C67.3424 3.66355 66.0055 4.79277 66.2346 8.74814C66.4638 12.7035 67.9222 13.6708 71.5421 13.461C75.19 13.2497 76.513 12.1212 76.2838 8.16588C76.0546 4.21051 74.6102 3.24244 70.9623 3.4538ZM68.1354 8.638C67.9735 5.84269 68.6434 5.06063 71.0473 4.92134C73.4513 4.78205 74.221 5.4807 74.383 8.27601C74.5449 11.0713 73.8611 11.8542 71.4571 11.9935C69.0531 12.1328 68.2974 11.4333 68.1354 8.638Z" fill="#D8D8D8"/>
<path d="M87.2359 14.1488L88.2071 6.05889C88.2655 5.57238 88.3895 4.30413 86.93 4.12892C86.2628 4.04882 85.7896 4.23173 85.1735 5.0179L80.4828 10.9692C80.3671 11.1105 80.2931 11.2567 80.1819 11.2433C80.029 11.225 80.0418 11.0009 80.0685 10.7785L80.9952 3.52927L79.1465 3.30734L78.1653 11.4807C78.0985 12.0367 77.9928 13.152 79.3968 13.3206C80.3837 13.439 80.7357 12.9737 81.0498 12.5884L85.829 6.60534C86.0103 6.38739 86.1326 6.19057 86.2438 6.20392C86.3689 6.21894 86.3628 6.38741 86.3444 6.54031L85.3872 13.9269L87.2359 14.1488ZM83.9399 2.37401C83.2866 2.29558 82.8579 1.99031 82.7384 1.34144L81.265 1.16457C81.435 2.56683 82.2824 3.26077 83.8114 3.44433C85.3404 3.62788 86.3279 3.1542 86.8389 1.8337L85.3655 1.65682C85.0819 2.2573 84.5793 2.45077 83.9399 2.37401Z" fill="#D8D8D8"/>
<path d="M99.8475 17.9235L100.328 16.5341L95.3521 14.8151C94.8228 14.6322 94.7362 14.4541 94.9191 13.9248L97.4107 6.71314L95.664 6.10967L92.9438 13.983C92.5781 15.0416 93.0195 15.5644 93.8135 15.8387L99.8475 17.9235Z" fill="#D8D8D8"/>
<path d="M109.222 11.5275C106.022 9.82315 104.292 10.0919 102.43 13.589C100.568 17.0861 101.31 18.6709 104.511 20.3752C107.736 22.0926 109.453 21.8173 111.315 18.3202C113.177 14.8232 112.447 13.2449 109.222 11.5275ZM104.111 14.4839C105.427 12.0125 106.406 11.6931 108.531 12.825C110.657 13.9568 110.951 14.9539 109.634 17.4253C108.318 19.8967 107.327 20.2095 105.202 19.0777C103.076 17.9459 102.795 16.9553 104.111 14.4839Z" fill="#D8D8D8"/>
<path d="M113.965 26.3123L119.011 19.6849L122.063 22.0088L122.954 20.8392L115.39 15.0804L114.5 16.2499L117.541 18.5653L112.494 25.1927L113.965 26.3123Z" fill="#D8D8D8"/>
<path d="M127.807 25.4586C125.309 22.8303 123.584 22.5388 120.712 25.2682C117.84 27.9976 118.043 29.7358 120.541 32.3641C123.058 35.0127 124.774 35.2941 127.646 32.5646C130.518 29.8352 130.324 28.1072 127.807 25.4586ZM122.023 26.6483C124.053 24.7194 125.083 24.7258 126.742 26.4713C128.4 28.2167 128.364 29.2556 126.334 31.1845C124.305 33.1134 123.265 33.0969 121.607 31.3514C119.948 29.606 119.994 28.5772 122.023 26.6483Z" fill="#D8D8D8"/>
<path d="M124.729 36.7167L128.205 41.802C129.058 43.0502 130.28 42.9273 131.47 42.1135C132.742 41.2444 132.891 40.3961 132.455 38.9644L131.369 35.3657C131.134 34.5763 131.441 34.2815 131.8 34.0366C132.377 33.6415 132.814 33.784 133.075 34.1654L135.982 38.4186L137.196 37.589L134.012 32.9313C133.135 31.6484 131.95 31.6272 130.794 32.4173C129.685 33.1758 129.216 33.954 129.608 35.2464L130.783 39.1237C131.046 39.9788 130.719 40.3204 130.407 40.5338C130.13 40.7234 129.505 41.0996 129.008 40.3714L125.942 35.8871L124.729 36.7167Z" fill="#D8D8D8"/>
<path d="M139.38 53.5354C138.027 53.9465 137.213 55.4083 137.636 56.8014C138.052 58.1677 139.545 58.943 140.898 58.532C142.278 58.1128 143.048 56.6498 142.633 55.2835C142.21 53.8904 140.747 53.1204 139.38 53.5354Z" fill="#D8D8D8"/>
</svg>
