<svg width="103" height="27" viewBox="0 0 103 27" fill="none" xmlns="http://www.w3.org/2000/svg">
<path d="M1.245 3.11H3.57L7.77 12.59L12.075 3.11H14.37V14H12.87V4.445L8.55 14H6.99L2.745 4.445V14H1.245V3.11ZM22.8452 9.86C22.4652 10.09 21.6502 10.275 20.4002 10.415C19.4902 10.515 18.8552 10.645 18.4952 10.805C18.1352 10.965 17.9552 11.27 17.9552 11.72C17.9552 12.11 18.1102 12.42 18.4202 12.65C18.7402 12.88 19.1802 12.995 19.7402 12.995C20.6402 12.995 21.3802 12.805 21.9602 12.425C22.5502 12.045 22.8452 11.59 22.8452 11.06V9.86ZM22.8902 12.755C22.1202 13.735 20.9902 14.225 19.5002 14.225C18.5002 14.225 17.7352 14.01 17.2052 13.58C16.6752 13.15 16.4102 12.555 16.4102 11.795C16.4102 11.425 16.4652 11.105 16.5752 10.835C16.6952 10.565 16.8502 10.345 17.0402 10.175C17.2402 10.005 17.5052 9.86 17.8352 9.74C18.1752 9.61 18.5152 9.515 18.8552 9.455C19.1952 9.395 19.6202 9.335 20.1302 9.275C20.2702 9.255 20.4552 9.235 20.6852 9.215C20.9152 9.195 21.0852 9.18 21.1952 9.17C21.3052 9.16 21.4452 9.145 21.6152 9.125C21.7952 9.095 21.9252 9.07 22.0052 9.05C22.0852 9.03 22.1802 9 22.2902 8.96C22.4102 8.92 22.4952 8.88 22.5452 8.84C22.5952 8.79 22.6452 8.735 22.6952 8.675C22.7552 8.605 22.7952 8.53 22.8152 8.45C22.8352 8.36 22.8452 8.26 22.8452 8.15C22.8452 7.72 22.6702 7.405 22.3202 7.205C21.9802 7.005 21.4452 6.905 20.7152 6.905C19.8952 6.905 19.2852 7.035 18.8852 7.295C18.4952 7.545 18.2802 7.955 18.2402 8.525H16.7252C16.8252 6.625 18.1202 5.675 20.6102 5.675C21.9602 5.675 22.9102 5.875 23.4602 6.275C24.0202 6.675 24.3002 7.365 24.3002 8.345V11.615C24.3002 12.055 24.3502 12.375 24.4502 12.575C24.5602 12.765 24.7502 12.86 25.0202 12.86C25.1302 12.86 25.2752 12.845 25.4552 12.815V13.985C25.0252 14.055 24.6402 14.09 24.3002 14.09C23.5102 14.09 23.0402 13.645 22.8902 12.755ZM28.2723 5.93V7.145C29.0023 6.165 30.0423 5.675 31.3923 5.675C32.6623 5.675 33.6973 6.08 34.4973 6.89C35.3073 7.69 35.7123 8.72 35.7123 9.98C35.7123 11.23 35.3073 12.25 34.4973 13.04C33.6973 13.83 32.6573 14.225 31.3773 14.225C30.1273 14.225 29.0923 13.755 28.2723 12.815V16.865H26.8173V5.93H28.2723ZM33.3723 7.82C32.8523 7.29 32.1373 7.025 31.2273 7.025C30.3173 7.025 29.5973 7.295 29.0673 7.835C28.5373 8.365 28.2723 9.08 28.2723 9.98C28.2723 10.87 28.5373 11.575 29.0673 12.095C29.5973 12.615 30.3173 12.875 31.2273 12.875C32.1373 12.875 32.8523 12.62 33.3723 12.11C33.9023 11.59 34.1673 10.88 34.1673 9.98C34.1673 9.07 33.9023 8.35 33.3723 7.82ZM38.8045 5.93V9.455L43.0495 5.93H45.2095L41.3845 9.005L45.4945 14H43.5295L40.3045 9.89L38.8045 11.09V14H37.3495V5.93H38.8045ZM51.7235 14V3.11H57.7835C58.8435 3.11 59.6585 3.35 60.2285 3.83C60.8085 4.31 61.0985 4.985 61.0985 5.855C61.0985 7.005 60.5235 7.805 59.3735 8.255C60.7735 8.535 61.4735 9.39 61.4735 10.82C61.4735 11.9 61.1585 12.7 60.5285 13.22C59.8985 13.74 58.9335 14 57.6335 14H51.7235ZM53.2685 4.535V7.685H57.1385C57.9885 7.685 58.6035 7.57 58.9835 7.34C59.3635 7.11 59.5535 6.695 59.5535 6.095C59.5535 5.535 59.3835 5.135 59.0435 4.895C58.7135 4.655 58.1885 4.535 57.4685 4.535H53.2685ZM53.2685 9.11V12.575H57.2735C58.1635 12.575 58.8185 12.45 59.2385 12.2C59.6585 11.95 59.8685 11.53 59.8685 10.94C59.8685 10.29 59.6785 9.825 59.2985 9.545C58.9185 9.255 58.3185 9.11 57.4985 9.11H53.2685ZM71.5723 10.265H64.2973C64.2973 11.055 64.5623 11.69 65.0923 12.17C65.6223 12.64 66.3173 12.875 67.1773 12.875C67.8173 12.875 68.3623 12.755 68.8123 12.515C69.2723 12.275 69.5823 11.935 69.7423 11.495H71.4373C71.1573 12.365 70.6423 13.04 69.8923 13.52C69.1523 13.99 68.2473 14.225 67.1773 14.225C65.8173 14.225 64.7373 13.845 63.9373 13.085C63.1473 12.315 62.7523 11.28 62.7523 9.98C62.7523 8.67 63.1523 7.625 63.9523 6.845C64.7523 6.065 65.8273 5.675 67.1773 5.675C68.5573 5.675 69.6323 6.06 70.4023 6.83C71.1823 7.59 71.5723 8.64 71.5723 9.98V10.265ZM64.3273 9.23H70.0123C69.9023 8.54 69.5973 8 69.0973 7.61C68.5973 7.22 67.9573 7.025 67.1773 7.025C66.4073 7.025 65.7673 7.22 65.2573 7.61C64.7573 8 64.4473 8.54 64.3273 9.23ZM79.7039 3.125H81.1889C80.8989 3.855 80.5539 4.325 80.1539 4.535C79.7539 4.745 79.0139 4.92 77.9339 5.06C76.6639 5.23 75.7439 5.53 75.1739 5.96C74.6039 6.38 74.2539 7.005 74.1239 7.835C74.4939 7.385 74.9889 7.025 75.6089 6.755C76.2389 6.485 76.8739 6.35 77.5139 6.35C78.7239 6.35 79.7139 6.695 80.4839 7.385C81.2639 8.075 81.6539 9.01 81.6539 10.19C81.6539 11.44 81.2289 12.425 80.3789 13.145C79.5289 13.865 78.4239 14.225 77.0639 14.225C75.6639 14.225 74.5839 13.82 73.8239 13.01C73.0639 12.2 72.6839 11.065 72.6839 9.605C72.6839 7.965 73.0489 6.66 73.7789 5.69C74.5189 4.71 75.7189 4.11 77.3789 3.89C78.2689 3.78 78.8489 3.68 79.1189 3.59C79.3889 3.5 79.5839 3.345 79.7039 3.125ZM79.3739 8.15C78.8339 7.67 78.1139 7.43 77.2139 7.43C76.3139 7.43 75.5839 7.685 75.0239 8.195C74.4739 8.705 74.1989 9.38 74.1989 10.22C74.1989 11.16 74.4639 11.885 74.9939 12.395C75.5239 12.895 76.2639 13.145 77.2139 13.145C78.1139 13.145 78.8339 12.865 79.3739 12.305C79.9239 11.735 80.1989 11.03 80.1989 10.19C80.1989 9.31 79.9239 8.63 79.3739 8.15ZM91.582 10.265H84.307C84.307 11.055 84.572 11.69 85.102 12.17C85.632 12.64 86.327 12.875 87.187 12.875C87.827 12.875 88.372 12.755 88.822 12.515C89.282 12.275 89.592 11.935 89.752 11.495H91.447C91.167 12.365 90.652 13.04 89.902 13.52C89.162 13.99 88.257 14.225 87.187 14.225C85.827 14.225 84.747 13.845 83.947 13.085C83.157 12.315 82.762 11.28 82.762 9.98C82.762 8.67 83.162 7.625 83.962 6.845C84.762 6.065 85.837 5.675 87.187 5.675C88.567 5.675 89.642 6.06 90.412 6.83C91.192 7.59 91.582 8.64 91.582 9.98V10.265ZM84.337 9.23H90.022C89.912 8.54 89.607 8 89.107 7.61C88.607 7.22 87.967 7.025 87.187 7.025C86.417 7.025 85.777 7.22 85.267 7.61C84.767 8 84.457 8.54 84.337 9.23ZM94.6737 5.93V7.145C95.4037 6.165 96.4437 5.675 97.7937 5.675C99.0637 5.675 100.099 6.08 100.899 6.89C101.709 7.69 102.114 8.72 102.114 9.98C102.114 11.23 101.709 12.25 100.899 13.04C100.099 13.83 99.0587 14.225 97.7787 14.225C96.5287 14.225 95.4937 13.755 94.6737 12.815V16.865H93.2187V5.93H94.6737ZM99.7737 7.82C99.2537 7.29 98.5387 7.025 97.6287 7.025C96.7187 7.025 95.9987 7.295 95.4687 7.835C94.9387 8.365 94.6737 9.08 94.6737 9.98C94.6737 10.87 94.9387 11.575 95.4687 12.095C95.9987 12.615 96.7187 12.875 97.6287 12.875C98.5387 12.875 99.2537 12.62 99.7737 12.11C100.304 11.59 100.569 10.88 100.569 9.98C100.569 9.07 100.304 8.35 99.7737 7.82Z" fill="white"/>
<path fill-rule="evenodd" clip-rule="evenodd" d="M56.7789 18.1829C55.0537 18.4775 53.3574 19.0355 51.7209 19.8466C51.2089 20.1504 50.6759 20.324 50.1638 20.6278C49.1188 21.163 48.1365 21.6405 47.1019 22.1902C46.757 22.3638 44.2908 23.3765 43.8623 23.5067C41.7722 24.2155 38.6371 25.0546 36.6411 23.796C35.6902 23.145 35.5961 25.1703 37.7593 25.8937C39.0244 26.2004 40.3225 26.1214 41.5632 25.6622C42.6083 25.3584 43.8623 24.8231 44.8551 24.4036C45.8478 23.9841 47.0183 23.5067 48.0947 23.0871C48.3559 22.9569 48.5649 22.8412 48.868 22.7255L50.4669 22.06C50.7699 21.9443 50.9894 21.7707 51.2507 21.6405L52.9018 21.1052C53.2049 20.9894 53.4243 20.8737 53.6856 20.7435C55.8736 20.0973 58.1052 19.7773 60.3424 19.7887C60.8963 19.7887 61.7219 19.9768 62.2862 20.0925C63.3312 20.2661 63.1013 19.4994 62.4116 19.0075C60.6183 18.0563 58.6762 17.772 56.7789 18.1829Z" fill="#40D0D5"/>
</svg>
