<svg width="64" height="64" viewBox="0 0 64 64" fill="none" xmlns="http://www.w3.org/2000/svg">
<path fill-rule="evenodd" clip-rule="evenodd" d="M9 26H39V38H36V29H12V59H23.5V62H9V26Z" fill="white"/>
<path fill-rule="evenodd" clip-rule="evenodd" d="M9 15H39V26L36 26V18H12V26L9 26V15Z" fill="white"/>
<path fill-rule="evenodd" clip-rule="evenodd" d="M28 37H58V62H28V37ZM31 40V59H55V40H31Z" fill="white"/>
<path fill-rule="evenodd" clip-rule="evenodd" d="M16 4H32V16H29V7H19V16H16V4Z" fill="white"/>
<path fill-rule="evenodd" clip-rule="evenodd" d="M56.5 62H10.5V59H56.5V62Z" fill="white"/>
<path fill-rule="evenodd" clip-rule="evenodd" d="M43.1529 8.53026L52.4744 5.42308L51.5258 2.57703L38.0258 7.07703L38.0073 9.9168L49.5073 13.9168L50.4929 11.0833L43.1529 8.53026Z" fill="white"/>
</svg>
