<svg width="64" height="64" viewBox="0 0 64 64" fill="none" xmlns="http://www.w3.org/2000/svg">
<path fill-rule="evenodd" clip-rule="evenodd" d="M62 7H2V57H19.4748L21.4748 52.5H42.5252L44.5252 57H60.5H62V7ZM59 23V54H46.4748L44.4748 49.5H19.5252L17.5252 54H5V23H13V30H16V23H25V42H28V23H36V42H39V23H48V30H51V23H59ZM59 20V10H5V20H59ZM14.5 39C13.1193 39 12 40.1193 12 41.5C12 42.8807 13.1193 44 14.5 44C15.8807 44 17 42.8807 17 41.5C17 40.1193 15.8807 39 14.5 39ZM9 41.5C9 38.4624 11.4624 36 14.5 36C17.5376 36 20 38.4624 20 41.5C20 44.5376 17.5376 47 14.5 47C11.4624 47 9 44.5376 9 41.5ZM47 41.5C47 40.1193 48.1193 39 49.5 39C50.8807 39 52 40.1193 52 41.5C52 42.8807 50.8807 44 49.5 44C48.1193 44 47 42.8807 47 41.5ZM49.5 36C46.4624 36 44 38.4624 44 41.5C44 44.5376 46.4624 47 49.5 47C52.5376 47 55 44.5376 55 41.5C55 38.4624 52.5376 36 49.5 36Z" fill="white"/>
</svg>
