<svg width="64" height="64" viewBox="0 0 64 64" fill="none" xmlns="http://www.w3.org/2000/svg">
<path fill-rule="evenodd" clip-rule="evenodd" d="M48.4271 12L45 5.1459L41.5729 12H10.5V20H5V29H2V57H22V52H62V30H59V49H22V29H19V20H13.5V15H39.7551C38.0346 17.3146 35.7872 19.2075 33.1809 20.5107L26.4032 23.8995L34.3954 28.9854C36.6798 30.4391 38.6172 32.3766 40.0709 34.661L45.1568 42.6531L48.5457 35.8755C50.3358 32.2952 53.2389 29.3921 56.8191 27.602L63.9104 24.0563L56.8191 20.5107C54.2128 19.2075 51.9654 17.3146 50.2449 15H59V18H62V12H48.4271ZM44.1376 13.5789L45 11.8541L45.8624 13.5789C47.9428 17.7397 51.3166 21.1135 55.4775 23.194L57.2022 24.0563L55.4775 24.9187C51.3166 26.9992 47.9428 30.373 45.8624 34.5338L44.8432 36.5723L42.6019 33.0503C40.9125 30.3955 38.6609 28.1439 36.006 26.4544L32.4841 24.2132L34.5225 23.194C38.6834 21.1135 42.0572 17.7397 44.1376 13.5789ZM16 29H8V23H16V29ZM5 54V32H19V54H5Z" fill="white"/>
</svg>
