<svg width="64" height="64" viewBox="0 0 64 64" fill="none" xmlns="http://www.w3.org/2000/svg">
<path fill-rule="evenodd" clip-rule="evenodd" d="M26 3H21.5H20.2703L20.0291 4.20583C18.5923 11.3902 12.3715 14.4261 9.21933 15.0265L8 15.2587V16.5V23V61H57V23V16.5V15.2587L55.7807 15.0265C52.6285 14.4261 46.4077 11.3902 44.9709 4.20583L44.7297 3H43.5H39H26ZM39 6H26H22.6856C20.7277 13.1335 14.8371 16.5474 11 17.6755V23V58H54V23V17.6755C50.1629 16.5474 44.2723 13.1335 42.3144 6H39ZM24 33.6771L20 35.6771L15.3292 33.3416L16.6708 30.6584L20 32.323L24 30.3229L28 32.323L32 30.3229L36 32.323L40 30.3229L44 32.323L47.3292 30.6584L48.6708 33.3416L44 35.6771L40 33.6771L36 35.6771L32 33.6771L28 35.6771L24 33.6771ZM20 27.6771L24 25.6771L28 27.6771L32 25.6771L36 27.6771L40 25.6771L44 27.6771L48.6708 25.3416L47.3292 22.6584L44 24.323L40 22.3229L36 24.323L32 22.3229L28 24.323L24 22.3229L20 24.323L16.6708 22.6584L15.3292 25.3416L20 27.6771ZM32 17.6771L28 19.6771L23.3292 17.3416L24.6708 14.6584L28 16.3229L32 14.3229L36 16.3229L39.3292 14.6584L40.6708 17.3416L36 19.6771L32 17.6771ZM20 43.6771L24 41.6771L28 43.6771L32 41.6771L36 43.6771L40 41.6771L44 43.6771L48.6708 41.3416L47.3292 38.6584L44 40.3229L40 38.3229L36 40.3229L32 38.3229L28 40.3229L24 38.3229L20 40.3229L16.6708 38.6584L15.3292 41.3416L20 43.6771ZM24 49.6771L20 51.6771L15.3292 49.3416L16.6708 46.6584L20 48.3229L24 46.3229L28 48.3229L32 46.3229L36 48.3229L40 46.3229L44 48.3229L47.3292 46.6584L48.6708 49.3416L44 51.6771L40 49.6771L36 51.6771L32 49.6771L28 51.6771L24 49.6771Z" fill="white"/>
</svg>
