<svg width="103" height="27" viewBox="0 0 103 27" fill="none" xmlns="http://www.w3.org/2000/svg">
<path d="M1.245 3.11V14H2.745V4.445L6.99 14H8.55L12.87 4.445V14H14.37V3.11H12.075L7.77 12.59L3.57 3.11H1.245ZM22.8452 9.86V11.06C22.8452 12.08 21.6002 12.995 19.7402 12.995C18.6002 12.995 17.9552 12.485 17.9552 11.72C17.9552 10.73 18.8252 10.595 20.4002 10.415C21.6152 10.28 22.4252 10.115 22.8452 9.86ZM22.8902 12.755C23.0402 13.625 23.4602 14.09 24.3002 14.09C24.5702 14.09 24.9902 14.06 25.4552 13.985V12.815C25.2752 12.845 25.1402 12.86 25.0202 12.86C24.4502 12.86 24.3002 12.455 24.3002 11.615V8.345C24.3002 6.38 23.2952 5.675 20.6102 5.675C18.1352 5.675 16.8302 6.62 16.7252 8.525H18.2402C18.3152 7.37 19.0802 6.905 20.7152 6.905C22.1702 6.905 22.8452 7.28 22.8452 8.15C22.8452 9.125 21.9152 9.08 20.1302 9.275C17.8352 9.53 16.4102 9.92 16.4102 11.795C16.4102 13.295 17.4752 14.225 19.5002 14.225C20.9852 14.225 22.1552 13.685 22.8902 12.755ZM28.2723 5.93H26.8173V16.865H28.2723V12.815C29.0973 13.76 30.0873 14.225 31.3773 14.225C33.9423 14.225 35.7123 12.485 35.7123 9.98C35.7123 7.46 33.9423 5.675 31.3923 5.675C30.0273 5.675 28.9473 6.245 28.2723 7.145V5.93ZM31.2273 7.025C33.0573 7.025 34.1673 8.165 34.1673 9.98C34.1673 11.78 33.0573 12.875 31.2273 12.875C29.3973 12.875 28.2723 11.765 28.2723 9.98C28.2723 8.18 29.3973 7.025 31.2273 7.025ZM38.8045 5.93H37.3495V14H38.8045V11.09L40.3045 9.89L43.5295 14H45.4945L41.3845 9.005L45.2095 5.93H43.0495L38.8045 9.455V5.93ZM51.7235 14H57.6335C60.2285 14 61.4735 12.995 61.4735 10.82C61.4735 9.41 60.7385 8.525 59.3735 8.255C60.5135 7.805 61.0985 7.01 61.0985 5.855C61.0985 4.13 59.9285 3.11 57.7835 3.11H51.7235V14ZM53.2685 4.535H57.4685C58.8935 4.535 59.5535 4.97 59.5535 6.095C59.5535 7.325 58.7885 7.685 57.1385 7.685H53.2685V4.535ZM53.2685 9.11H57.4985C59.1185 9.11 59.8685 9.635 59.8685 10.94C59.8685 12.14 59.0135 12.575 57.2735 12.575H53.2685V9.11ZM71.5723 10.265V9.98C71.5723 7.295 69.9373 5.675 67.1773 5.675C64.4773 5.675 62.7523 7.37 62.7523 9.98C62.7523 12.575 64.4623 14.225 67.1773 14.225C69.3223 14.225 70.8673 13.235 71.4373 11.495H69.7423C69.4123 12.38 68.4523 12.875 67.1773 12.875C65.4523 12.875 64.2973 11.84 64.2973 10.265H71.5723ZM64.3273 9.23C64.5673 7.85 65.6323 7.025 67.1773 7.025C68.7373 7.025 69.7873 7.865 70.0123 9.23H64.3273ZM79.7039 3.125C79.4639 3.575 79.1339 3.665 77.3789 3.89C73.9289 4.34 72.6839 6.485 72.6839 9.605C72.6839 12.5 74.2439 14.225 77.0639 14.225C79.7189 14.225 81.6539 12.74 81.6539 10.19C81.6539 7.79 79.8839 6.35 77.5139 6.35C76.2539 6.35 74.8739 6.935 74.1239 7.835C74.3789 6.185 75.3689 5.405 77.9339 5.06C79.8689 4.805 80.5589 4.7 81.1889 3.125H79.7039ZM77.2139 7.43C78.9689 7.43 80.1989 8.39 80.1989 10.19C80.1989 11.84 79.0439 13.145 77.2139 13.145C75.3239 13.145 74.1989 12.125 74.1989 10.22C74.1989 8.525 75.4289 7.43 77.2139 7.43ZM91.582 10.265V9.98C91.582 7.295 89.947 5.675 87.187 5.675C84.487 5.675 82.762 7.37 82.762 9.98C82.762 12.575 84.472 14.225 87.187 14.225C89.332 14.225 90.877 13.235 91.447 11.495H89.752C89.422 12.38 88.462 12.875 87.187 12.875C85.462 12.875 84.307 11.84 84.307 10.265H91.582ZM84.337 9.23C84.577 7.85 85.642 7.025 87.187 7.025C88.747 7.025 89.797 7.865 90.022 9.23H84.337ZM94.6737 5.93H93.2187V16.865H94.6737V12.815C95.4987 13.76 96.4887 14.225 97.7787 14.225C100.344 14.225 102.114 12.485 102.114 9.98C102.114 7.46 100.344 5.675 97.7937 5.675C96.4287 5.675 95.3487 6.245 94.6737 7.145V5.93ZM97.6287 7.025C99.4587 7.025 100.569 8.165 100.569 9.98C100.569 11.78 99.4587 12.875 97.6287 12.875C95.7987 12.875 94.6737 11.765 94.6737 9.98C94.6737 8.18 95.7987 7.025 97.6287 7.025Z" fill="#222222"/>
<path fill-rule="evenodd" clip-rule="evenodd" d="M56.7789 18.1829C55.0537 18.4775 53.3574 19.0355 51.7209 19.8466C51.2089 20.1504 50.6759 20.324 50.1638 20.6278C49.1188 21.163 48.1365 21.6405 47.1019 22.1902C46.757 22.3638 44.2908 23.3765 43.8623 23.5067C41.7722 24.2155 38.6371 25.0546 36.6411 23.796C35.6902 23.145 35.5961 25.1703 37.7593 25.8937C39.0244 26.2004 40.3225 26.1214 41.5632 25.6622C42.6083 25.3584 43.8623 24.8231 44.8551 24.4036C45.8478 23.9841 47.0183 23.5067 48.0947 23.0871C48.3559 22.9569 48.5649 22.8412 48.868 22.7255L50.4669 22.06C50.7699 21.9443 50.9894 21.7707 51.2507 21.6405L52.9018 21.1052C53.2049 20.9894 53.4243 20.8737 53.6856 20.7435C55.8736 20.0973 58.1052 19.7773 60.3424 19.7887C60.8963 19.7887 61.7219 19.9768 62.2862 20.0925C63.3312 20.2661 63.1013 19.4994 62.4116 19.0075C60.6183 18.0563 58.6762 17.772 56.7789 18.1829Z" fill="#40D0D5"/>
</svg>
